# xmcd
# Copyright (C) 1995-1998 Ti Kan
#
# Track frame offsets:
#       150
#       17973
#       36059
#       55572
#       70978
#       92200
#       111183
#       125721
#
# Disc length: 1781 seconds
#
# Revision: 2
# Processed by: cddbd v1.5.1PL0 Copyright (c) Steve Scherf et al.
# Submitted via: CD-Transfer v1.0
#
DISCID=6b06f308
DTITLE=Jargon - Jargon
DYEAR=2004
DGENRE=
TTITLE0=Verwählt
TTITLE1=Bitte Bliib
TTITLE2=Irgend Eis
TTITLE3=Ke Stich
TTITLE4=Ohni Di
TTITLE5=Schachmatt
TTITLE6=Früehcher
TTITLE7=Hidden Track
EXTD=
EXTT0=
EXTT1=
EXTT2=
EXTT3=
EXTT4=
EXTT5=
EXTT6=
EXTT7=
PLAYORDER=
